<?xml version="1.0" encoding="UTF-8" standalone="no"?>
<!-- Created with Inkscape (http://www.inkscape.org/) -->

<svg
   width="1024"
   height="1024"
   viewBox="0 0 270.93333 270.93333"
   version="1.1"
   id="svg5"
   xml:space="preserve"
   xmlns="http://www.w3.org/2000/svg"
   xmlns:svg="http://www.w3.org/2000/svg"><defs
     id="defs2" /><rect
     style="fill:#ffffff;stroke-width:5.29167;stroke-linecap:round;stroke-linejoin:round;fill-opacity:1"
     id="rect362"
     width="270.93332"
     height="270.93332"
     x="0"
     y="0"
     ry="1.7482508" /><g
     id="layer1"
     transform="matrix(0.62489346,0,0,0.62489346,50.814664,50.986505)"><g
       aria-label="MAP"
       id="text4426"
       style="font-size:100.891px;line-height:1.25;fill:#216e3c;stroke-width:2.52227"><path
         d="m 18.882847,178.12467 v 73.37527 h 19.490307 v -42.7067 h 0.573244 l 16.337463,42.13345 h 11.751508 l 16.337463,-41.84683 h 0.573245 v 42.42008 H 103.43638 V 178.12467 H 78.643567 L 61.589548,219.68488 H 60.729682 L 43.675664,178.12467 Z"
         style="font-weight:900;font-family:Inter;-inkscape-font-specification:'Inter Heavy'"
         id="path334" /><path
         d="m 131.95527,251.49994 4.22767,-14.04449 h 24.21958 l 4.22767,14.04449 h 21.49666 l -24.21957,-73.37527 h -27.2291 l -24.21957,73.37527 z m 8.74197,-28.94884 7.30887,-24.21957 h 0.57324 l 7.30887,24.21957 z"
         style="font-weight:900;font-family:Inter;-inkscape-font-specification:'Inter Heavy'"
         id="path336" /><path
         d="m 193.14905,251.49994 h 19.92024 v -21.78328 h 11.03495 c 16.73157,0 27.94567,-9.85264 27.94567,-25.65269 0,-15.62091 -10.92747,-25.9393 -27.22911,-25.9393 h -31.67175 z m 19.92024,-37.26088 V 194.0322 h 7.02224 c 6.98642,0 11.17827,3.72608 11.17827,10.03177 0,6.26986 -4.19185,10.17509 -11.17827,10.17509 z"
         style="font-weight:900;font-family:Inter;-inkscape-font-specification:'Inter Heavy'"
         id="path338" /></g><g
       id="g1000"
       transform="translate(-1.833092e-4,-1.5679637)"><g
         id="g3636"
         transform="matrix(1.1688512,0,0,1.1688512,-9.2357945,69.647319)"><g
           id="g3621"
           style="stroke:#216e3c;stroke-linecap:round;stroke-linejoin:round;stroke-opacity:1"><ellipse
             style="fill:none;stroke:#216e3c;stroke-width:5.29167;stroke-linecap:round;stroke-linejoin:round;stroke-dasharray:none;stroke-opacity:1"
             id="path3269"
             ry="16.431349"
             rx="13.997155"
             cy="70.51461"
             cx="40.699635" /><ellipse
             style="fill:none;stroke:#216e3c;stroke-width:5.29167;stroke-linecap:round;stroke-linejoin:round;stroke-dasharray:none;stroke-opacity:1"
             id="ellipse3377"
             ry="16.431349"
             rx="13.997155"
             cy="70.51461"
             cx="95.350533" /><path
             style="fill:none;stroke:#216e3c;stroke-width:5.29167;stroke-linecap:round;stroke-linejoin:round;stroke-dasharray:none;stroke-opacity:1"
             d="m 81.313277,42.223046 -26.903972,-0.0139 -13.10655,27.672185 24.558489,-0.212909 19.482547,-19.38261"
             id="path3442" /><path
             style="fill:none;stroke:#216e3c;stroke-width:5.29167;stroke-linecap:round;stroke-linejoin:round;stroke-dasharray:none;stroke-opacity:1"
             d="M 65.932504,70.299328 54.221597,42.011008 53.174429,34.754694"
             id="path3493" /><path
             style="fill:none;stroke:#216e3c;stroke-width:5.29167;stroke-linecap:round;stroke-linejoin:round;stroke-dasharray:none;stroke-opacity:1"
             d="M 95.402573,71.895274 80.145411,38.498382 83.725313,34.509207 c 2.829024,-3.181406 1.916266,-4.676883 -1.226405,-4.915392 l -6.731119,-0.131501"
             id="path3497" /></g><g
           id="g3625"
           style="fill:#216e3c;fill-opacity:1"><path
             style="fill:#216e3c;fill-opacity:1;stroke:none;stroke-width:0.264583px;stroke-linecap:butt;stroke-linejoin:miter;stroke-opacity:1"
             d="m 45.66682,30.850237 0.957184,5.204553 c 0.148685,0.460633 0.577979,0.652204 0.907144,0.781683 l 3.439621,0.54984 6.019961,-0.189239 6.089542,-4.889537 c 1.113309,-1.014267 0.139629,-2.25012 -0.562144,-2.252501 l -16.427801,-0.019 c -0.264706,0.16172 -0.369178,0.4657 -0.423507,0.814198 z"
             id="path3495" /><ellipse
             style="fill:#216e3c;fill-opacity:1;stroke:none;stroke-width:3.96294;stroke-linecap:round;stroke-linejoin:round;stroke-dasharray:none;stroke-opacity:0.501961"
             id="path3551"
             cx="65.101173"
             cy="69.888962"
             rx="6.5828257"
             ry="7.3087382" /></g></g><g
         aria-label="KE"
         id="text4430"
         style="font-size:100.891px;line-height:1.25;fill:#216e3c;stroke-width:2.52227"><path
           d="m 123.34873,172.52673 h 19.92024 v -18.91706 l 6.59231,-8.59866 16.48077,27.51572 h 23.78964 l -25.36606,-40.70034 24.79281,-32.674928 h -23.21639 l -22.06991,29.665388 h -1.00317 V 99.151462 h -19.92024 z"
           style="font-weight:900;font-family:Inter;-inkscape-font-specification:'Inter Heavy'"
           id="path443" /><path
           d="m 195.43424,172.52673 h 52.73847 v -16.05084 h -32.81823 v -12.61137 h 30.23863 V 127.81368 H 215.35448 V 115.2023 h 32.96154 V 99.151462 h -52.88178 z"
           style="font-weight:900;font-family:Inter;-inkscape-font-specification:'Inter Heavy'"
           id="path445" /></g></g><g
       aria-label="SYD"
       id="text3692"
       style="font-size:98.3924px;line-height:1.25;fill:#216e3c;stroke-width:2.45982"><path
         d="M 59.274043,42.222889 H 77.86238 C 77.792499,28.176814 66.960949,18.882646 49.630469,18.882646 c -17.016016,0 -29.035542,9.154406 -28.930721,22.781195 -0.03494,11.180955 7.721847,17.400361 20.405243,20.125719 l 7.127859,1.537381 c 7.96643,1.747024 10.691788,3.738632 10.761669,6.988097 -0.06988,3.528989 -3.284406,6.009763 -9.503812,6.009763 -7.442323,0 -11.844824,-3.494048 -12.159288,-10.062859 H 18.882843 c 0.06988,17.959409 12.22917,25.99572 30.887388,25.99572 18.134111,0 29.000602,-7.826669 29.070483,-21.942624 -0.06988,-10.901431 -6.568811,-18.553397 -22.36191,-21.942624 l -5.870001,-1.257857 c -6.778454,-1.43256 -9.818276,-3.424168 -9.643574,-6.848335 0.03494,-3.144644 2.655477,-5.450716 8.66524,-5.450716 6.289287,0 9.259228,2.760299 9.643574,7.407383 z"
         style="font-weight:900;font-family:Inter;-inkscape-font-specification:'Inter Heavy'"
         id="path327" /><path
         d="m 83.31308,19.860979 26.27524,49.05644 V 91.41909 h 19.28715 V 68.917419 l 26.27524,-49.05644 h -21.6631 l -13.97619,29.070483 h -0.55905 L 104.97618,19.860979 Z"
         style="font-weight:900;font-family:Inter;-inkscape-font-specification:'Inter Heavy'"
         id="path329" /><path
         d="m 188.97305,91.41909 c 21.80287,0 35.6393,-13.417146 35.6393,-35.779055 0,-22.36191 -13.83643,-35.779056 -35.91882,-35.779056 H 161.43995 V 91.41909 Z M 180.86686,74.927182 V 36.352888 h 6.84834 c 11.18095,0 17.33048,4.33262 17.33048,19.287147 0,14.954527 -6.14953,19.287147 -16.77144,19.287147 z"
         style="font-weight:900;font-family:Inter;-inkscape-font-specification:'Inter Heavy'"
         id="path331" /></g></g></svg>
