<?xml version="1.0" encoding="utf-8"?>
<!-- Generator: Adobe Illustrator 27.8.1, SVG Export Plug-In . SVG Version: 6.00 Build 0)  -->
<svg version="1.1" id="Artwork" xmlns="http://www.w3.org/2000/svg" xmlns:xlink="http://www.w3.org/1999/xlink" x="0px" y="0px"
	 viewBox="0 0 283.46 283.46" style="enable-background:new 0 0 283.46 283.46;" xml:space="preserve">
<style type="text/css">
	.st0{fill:#FFFFFF;}
	.st1{fill:#78BE20;}
</style>
<g>
	<path class="st0" d="M102.33,172.64h32.86l-13.12-17.63l-0.81,6.93c-0.16,1.48-1.5,2.54-2.98,2.33c-1.47-0.16-2.52-1.49-2.35-2.95
		l4.25-36.12c0.18-1.49,1.52-2.52,2.98-2.36c1.48,0.19,2.56,1.51,2.35,3.01l-2.51,21.43l18.89,25.37h39.27
		c1.23,0,2.23-1.01,2.23-2.22c-0.04-0.42-3.6-79.99-3.6-79.99c0-0.09,0-0.16,0-0.25c0-1.24-1.03-2.24-2.24-2.24h-71.61
		c-1.21,0-2.22,1.01-2.22,2.24c0,0.09,0,0.16,0,0.25c0,0-3.59,79.57-3.6,79.99C100.12,171.63,101.1,172.64,102.33,172.64z"/>
	<path class="st0" d="M192.11,55.59h-47.46V41.31h40.65c3.4,0,6.25,2.53,6.65,5.9c0.16,1.47,1.5,2.52,2.97,2.33
		c1.48-0.15,2.51-1.49,2.34-2.96c-0.69-6.06-5.84-10.63-11.96-10.63H98.18c-6.13,0-11.28,4.56-11.97,10.63
		c-0.19,1.47,0.88,2.81,2.34,2.96c1.48,0.18,2.82-0.86,2.97-2.33c0.41-3.37,3.27-5.9,6.65-5.9h41.11v14.28H91.37
		c-10.52,0-19.04,8.56-19.04,19.07V74.4l-6.1,132.73v0.13c0,10.5,8.54,19.05,19.06,19.05h16.42c0,2.77,0,6.64,0,7.8
		c-1.33,1.34-9.73,9.92-9.73,9.92c-0.51,0.54-0.77,1.21-0.77,1.89c0,0.69,0.25,1.4,0.8,1.93c1.08,1.02,2.75,1.02,3.8-0.04
		l10.5-10.74c0.51-0.51,0.77-1.18,0.77-1.88v-8.88h69.32v8.88c0,0.7,0.27,1.38,0.77,1.88l10.5,10.74c1.02,1.06,2.72,1.06,3.82,0.04
		c0.53-0.53,0.77-1.24,0.77-1.93c0-0.67-0.24-1.35-0.76-1.89c0,0-8.43-8.58-9.75-9.92c0-1.16,0-5.03,0-7.8h16.44
		c10.5,0,19.03-8.54,19.03-19.05v-0.13L211.15,74.4C211.01,64.02,202.54,55.59,192.11,55.59z M89.38,170.17l3.61-80.23
		c0,0.07,0,0.15,0,0.25c0-7.17,5.82-12.96,12.94-12.96h71.61c7.15,0,12.96,5.79,12.96,12.96c0-0.09,0-0.18,0-0.25l3.63,80.23
		c0,0.05,0,0.15,0,0.23c0,7.14-5.81,12.99-12.99,12.99h-78.82c-7.15,0-12.95-5.85-12.95-12.99
		C89.38,170.32,89.38,170.22,89.38,170.17z M115.36,204.82H93.23c-2.98,0-5.36-2.4-5.36-5.38c0-2.95,2.38-5.38,5.36-5.38h22.13
		c2.95,0,5.35,2.44,5.35,5.38C120.71,202.41,118.31,204.82,115.36,204.82z M190.26,204.82h-22.12c-2.98,0-5.38-2.4-5.38-5.38
		c0-2.95,2.4-5.38,5.38-5.38h22.12c2.99,0,5.38,2.44,5.38,5.38C195.64,202.41,193.25,204.82,190.26,204.82z"/>
	<path class="st0" d="M211.15,74.4L211.15,74.4c0,0.09,0.03,0.17,0.03,0.26L211.15,74.4z"/>
	<path class="st1" d="M102.33,183.39h78.82c7.18,0,12.99-5.85,12.99-12.99c0-0.07,0-0.18,0-0.23l-3.63-80.23c0,0.07,0,0.15,0,0.25
		c0-7.17-5.81-12.96-12.96-12.96h-71.61c-7.12,0-12.94,5.79-12.94,12.96c0-0.09,0-0.18,0-0.25l-3.61,80.23c0,0.05,0,0.15,0,0.23
		C89.38,177.54,95.18,183.39,102.33,183.39z M103.71,90.43c0-0.09,0-0.16,0-0.25c0-1.24,1-2.24,2.22-2.24h71.61
		c1.21,0,2.24,1.01,2.24,2.24c0,0.09,0,0.16,0,0.25c0,0,3.56,79.57,3.6,79.99c-0.01,1.22-1,2.22-2.23,2.22h-39.27l-18.89-25.37
		l2.51-21.43c0.21-1.5-0.87-2.82-2.35-3.01c-1.46-0.16-2.8,0.88-2.98,2.36l-4.25,36.12c-0.17,1.46,0.87,2.79,2.35,2.95
		c1.48,0.21,2.82-0.85,2.98-2.33l0.81-6.93l13.12,17.63h-32.86c-1.23,0-2.21-1.01-2.21-2.22C100.12,170,103.71,90.43,103.71,90.43z"
		/>
	<path class="st1" d="M115.36,194.05H93.23c-2.98,0-5.36,2.44-5.36,5.38c0,2.98,2.38,5.38,5.36,5.38h22.13
		c2.95,0,5.35-2.4,5.35-5.38C120.71,196.49,118.31,194.05,115.36,194.05z"/>
	<path class="st1" d="M190.26,194.05h-22.12c-2.98,0-5.38,2.44-5.38,5.38c0,2.98,2.4,5.38,5.38,5.38h22.12
		c2.99,0,5.38-2.4,5.38-5.38C195.64,196.49,193.25,194.05,190.26,194.05z"/>
	<path class="st1" d="M141.77,0C63.6,0,0,63.59,0,141.75c0,78.14,63.6,141.71,141.77,141.71c78.13,0,141.69-63.57,141.69-141.71
		C283.46,63.59,219.9,0,141.77,0z M217.23,207.26c0,10.5-8.53,19.05-19.03,19.05h-16.44c0,2.77,0,6.64,0,7.8
		c1.32,1.34,9.75,9.92,9.75,9.92c0.52,0.54,0.76,1.21,0.76,1.89c0,0.69-0.25,1.4-0.77,1.93c-1.1,1.02-2.8,1.02-3.82-0.04
		l-10.5-10.74c-0.5-0.51-0.77-1.18-0.77-1.88v-8.88h-69.32v8.88c0,0.7-0.26,1.38-0.77,1.88l-10.5,10.74
		c-1.04,1.06-2.72,1.06-3.8,0.04c-0.55-0.53-0.8-1.24-0.8-1.93c0-0.67,0.25-1.35,0.77-1.89c0,0,8.4-8.58,9.73-9.92
		c0-1.16,0-5.03,0-7.8H85.29c-10.51,0-19.06-8.54-19.06-19.05v-0.13l6.1-132.73v0.26c0-10.5,8.51-19.07,19.04-19.07h47.92V41.31
		H98.18c-3.38,0-6.24,2.53-6.65,5.9c-0.15,1.47-1.49,2.52-2.97,2.33c-1.46-0.15-2.54-1.49-2.34-2.96
		c0.69-6.06,5.84-10.63,11.97-10.63h87.12c6.12,0,11.28,4.56,11.96,10.63c0.17,1.47-0.86,2.81-2.34,2.96
		c-1.47,0.18-2.81-0.86-2.97-2.33c-0.4-3.37-3.25-5.9-6.65-5.9h-40.65v14.28h47.46c10.43,0,18.9,8.43,19.04,18.81l0-0.01l0.03,0.26
		c0-0.09-0.02-0.17-0.03-0.26l6.09,132.72V207.26z"/>
</g>
</svg>
