<?xml version="1.0" encoding="utf-8"?>
<!-- Generator: Adobe Illustrator 27.8.1, SVG Export Plug-In . SVG Version: 6.00 Build 0)  -->
<svg version="1.1" id="Artwork" xmlns="http://www.w3.org/2000/svg" xmlns:xlink="http://www.w3.org/1999/xlink" x="0px" y="0px"
	 viewBox="0 0 283.46 283.46" style="enable-background:new 0 0 283.46 283.46;" xml:space="preserve">
<style type="text/css">
	.st0{fill:#0072CE;}
	.st1{fill:#FFFFFF;}
</style>
<g>
	<path class="st0" d="M141.75,0C63.62,0,0,63.63,0,141.77s63.62,141.69,141.75,141.69c78.13,0,141.71-63.55,141.71-141.69
		S219.89,0,141.75,0z"/>
	<g>
		<path class="st1" d="M178.98,88.45h-34.64v31.54h36.95C181.03,116.63,179.1,90.46,178.98,88.45z"/>
		<path class="st1" d="M138.97,88.45h-34.6c-0.17,2.01-2.1,28.19-2.35,31.54h36.95V88.45z"/>
		<path class="st1" d="M221.79,214.88h-29.77l-7.84-11.49h22.56c1.47,0,2.64-1.22,2.64-2.68c0-1.51-1.17-2.73-2.64-2.73h-26.26
			l-8.18-12.04h29.78c10.48,0,19.04-8.51,19.04-19v-0.25l-7-95.76v0.38c0-10.49-8.55-19.04-19.08-19.04H88.26
			c-10.48,0-19.04,8.56-19.04,19.04v-0.38l-7.04,95.76v0.25c0,10.49,8.55,19,19.08,19h29.95l-8.18,12.04H76.77
			c-1.47,0-2.64,1.22-2.64,2.73c0,1.47,1.17,2.68,2.64,2.68h22.56l-7.84,11.49H61.72c-3.02,0-5.37,2.39-5.37,5.37
			c0,2.94,2.35,5.37,5.37,5.37h22.48l-7.51,10.99c-0.46,0.71-0.5,1.64-0.13,2.35c0.38,0.76,1.22,1.22,2.06,1.22h15.94
			c0.96,0,1.76-0.59,2.14-1.43l5.2-13.13h79.73l5.2,13.13c0.38,0.84,1.17,1.43,2.14,1.43h15.94c0.84,0,1.68-0.46,2.06-1.22
			c0.38-0.71,0.34-1.64-0.13-2.35l-7.51-10.99h22.48c3.02,0,5.37-2.43,5.37-5.37C227.16,217.28,224.81,214.88,221.79,214.88z
			 M172.05,164.93c-3.48,0-6.29-2.81-6.29-6.29c0-3.48,2.81-6.29,6.29-6.29c3.48,0,6.37,2.81,6.37,6.29
			C178.43,162.12,175.53,164.93,172.05,164.93z M170.66,197.99h-57.81l4.83-12.04h48.16L170.66,197.99z M195.31,158.64
			c0,3.48-2.81,6.29-6.29,6.29c-3.52,0-6.29-2.81-6.29-6.29c0-3.48,2.77-6.29,6.29-6.29C192.5,152.35,195.31,155.16,195.31,158.64z
			 M91.16,121.12l2.56-34.27c0-5.03,4.11-9.14,9.14-9.14h77.54c5.07,0,9.18,4.11,9.18,9.14l2.56,34.27v0.42
			c0,5.08-4.11,9.14-9.14,9.14h-82.7c-5.03,0-9.18-4.07-9.18-9.14C91.12,121.41,91.16,121.29,91.16,121.12z M94.49,164.94
			c-3.48,0-6.29-2.81-6.29-6.29c0-3.48,2.81-6.29,6.29-6.29c3.52,0,6.29,2.81,6.29,6.29C100.78,162.13,98.01,164.94,94.49,164.94z
			 M105.08,158.64c0-3.48,2.9-6.29,6.37-6.29c3.48,0,6.29,2.81,6.29,6.29c0,3.48-2.81,6.29-6.29,6.29
			C107.97,164.93,105.08,162.12,105.08,158.64z M106.15,214.86l4.57-11.49h62.05l4.57,11.49H106.15z"/>
	</g>
</g>
</svg>
